<?xml version="1.0" encoding="utf-8"?>
<!-- Generator: Adobe Illustrator 22.1.0, SVG Export Plug-In . SVG Version: 6.00 Build 0)  -->
<svg version="1.1" id="Layer_1" xmlns="http://www.w3.org/2000/svg" xmlns:xlink="http://www.w3.org/1999/xlink" x="0px" y="0px"
	 viewBox="0 0 259.8 37.9" style="enable-background:new 0 0 259.8 37.9;" xml:space="preserve">
<style type="text/css">
	.st0{fill:#C90000;}
	.st1{fill:#212020;}
</style>
<g>
	<path class="st0" d="M34.1,21.2c0,1.6-0.4,3.2-1.1,4.7c-0.8,1.8-2,3.5-3.5,4.9c-2.6,2.6-4,4.6-4.8,7.1h18.9L34.1,21.2L34.1,21.2z"
		/>
	<path class="st0" d="M15.3,11.5c1.8-1.1,4-1.8,6.6-1.9l0,0l0.1,0c2.4-0.1,4.5,0.4,6.3,1.5L21.9,0L15.3,11.5L15.3,11.5z"/>
	<path class="st0" d="M19,37.9c1.4-3.6,4.2-6.4,7.6-9.8c1-1,1.9-2.2,2.5-3.5c1.4-3.1,0.7-6.5-1.9-8.9c-1.4-1.4-3.4-2.2-5.6-2.1
		l-0.1,0c-2.4,0.1-4.3,1-5.6,2.2c-1.4,1.3-2.1,3.1-2.1,4.8c0,0.9,0.2,1.6,0.4,2.2c0.4,1,1.2,1.7,2.1,2.2c0.9,0.5,2,0.6,2.9,0.6
		c0.6,0,1.1-0.1,1.5-0.2c0.8-0.3,1.6-1,2.1-1.8c0.3-0.6,0.5-1.3,0.2-2c-0.1-0.3-0.3-0.5-0.4-0.7c-0.3-0.3-0.6-0.4-1-0.5
		c-1-0.2-1.3,0.4-2.1,0.7c-0.6,0.2-1.5,0.3-2.2-0.3c-0.9-0.7-0.8-2,0.1-2.9c0.6-0.6,1.3-1,2.1-1.3c1-0.4,2.2-0.4,3.3-0.2
		c1.1,0.2,2.1,0.7,2.9,1.4c0.6,0.5,1.1,1.2,1.4,2c0.7,1.9,0.4,3.8-0.5,5.4c-1,1.8-2.8,3.3-4.6,4c-0.9,0.3-2,0.5-3.1,0.6
		c-1.5,0-3.2-0.3-4.8-1c-1.6-0.8-3-2-3.8-3.9c-0.4-1-0.7-2.1-0.7-3.5L0,37.9H19L19,37.9z"/>
	<path class="st1" d="M76.8,36.4h5.7L70.1,8.8h-5.7L52.1,36.4h5.6l2.4-5.2h14.4L76.8,36.4L76.8,36.4z M72.4,26.3H62.2l5.1-11.8
		L72.4,26.3L72.4,26.3z M101.8,8.9v15.8c0,4.7-2.4,7.6-6.7,7.6c-4.3,0-7.1-2.6-7.1-7.6V8.9h-5.2v15.8C82.8,32.9,88.4,37,95,37
		c6.9,0,11.9-4.2,11.9-12.3V8.9H101.8L101.8,8.9z M135.7,12.2c-2.8-2.8-6.5-4.2-10.2-4.2c-9.7,0-14.6,7.2-14.6,14.9
		c0,7.2,4.2,14.1,14.6,14.1c4.8,0,8.3-1.9,11-5V20.4h-11.8v4.6h7V30c-2.2,1.7-4.1,2.2-6.2,2.2c-6.8,0-9.5-4.7-9.5-9.2
		c0-5.7,3.6-10.2,9.5-10.2c2.4,0,5.2,1,7,2.8L135.7,12.2L135.7,12.2z M159.7,8.9v15.8c0,4.7-2.4,7.6-6.7,7.6c-4.3,0-7.1-2.6-7.1-7.6
		V8.9h-5.2v15.8c0,8.3,5.6,12.3,12.2,12.3c6.9,0,11.9-4.2,11.9-12.3V8.9H159.7L159.7,8.9z M194.4,36l-8.3-9.4c5.2-1.1,7-4.9,7-8.7
		c0-4.8-3.4-9.1-9.9-9.2c-4.4,0-8.7,0-13.1,0v27.6h5.2v-9.2h5l8,9.2h6.2V36L194.4,36z M183.1,13.6c3.3,0,4.7,2.2,4.7,4.4
		c0,2.2-1.4,4.4-4.7,4.4h-7.9v-8.9H183.1L183.1,13.6z M201.7,36.4V8.8h-5.2v27.6H201.7L201.7,36.4z M228.5,36.4h5.7L221.8,8.8h-5.7
		l-12.4,27.6h5.6l2.4-5.2h14.4L228.5,36.4L228.5,36.4z M224.1,26.3h-10.2l5.1-11.8L224.1,26.3L224.1,26.3z M254.6,25.9L241.1,8.8
		h-4.2v27.6h5.2V17.8l14.5,18.6l0,0h3.2V8.8h-5.2V25.9L254.6,25.9z"/>
</g>
</svg>
